<svg width="127" height="131" viewBox="0 0 127 131" fill="none" xmlns="http://www.w3.org/2000/svg">
<g filter="url(#filter0_d_83_243)">
<path d="M16 29C16 19.0589 24.0589 11 34 11H91C100.941 11 109 19.0589 109 29V90C109 99.9411 100.941 108 91 108H34C24.0589 108 16 99.9411 16 90V29Z" fill="#191A1B"/>
<path d="M17 29C17 19.6112 24.6112 12 34 12H91C100.389 12 108 19.6112 108 29V90C108 99.3888 100.389 107 91 107H34C24.6112 107 17 99.3888 17 90V29Z" stroke="#3D31E3" stroke-width="2"/>
</g>
<path d="M55.7298 83C55.2632 83 54.8432 82.8367 54.4698 82.51C54.1432 82.1833 53.9798 81.7633 53.9798 81.25V46.46L43.8998 54.23C43.4798 54.5567 43.0365 54.6733 42.5698 54.58C42.1498 54.4867 41.7765 54.23 41.4498 53.81L37.9498 49.26C37.6698 48.84 37.5532 48.3967 37.5998 47.93C37.6932 47.4633 37.9498 47.09 38.3698 46.81L54.3298 34.49C54.6098 34.3033 54.8665 34.1867 55.0998 34.14C55.3798 34.0467 55.6832 34 56.0098 34H63.4298C63.8965 34 64.2932 34.1633 64.6198 34.49C64.9465 34.8167 65.1098 35.2367 65.1098 35.75V81.25C65.1098 81.7633 64.9465 82.1833 64.6198 82.51C64.2932 82.8367 63.8965 83 63.4298 83H55.7298ZM75.7859 58.5C75.2726 58.5 74.8526 58.3367 74.5259 58.01C74.1993 57.6833 74.0359 57.2633 74.0359 56.75V49.26C74.0359 48.7467 74.1993 48.3267 74.5259 48C74.8526 47.6733 75.2726 47.51 75.7859 47.51H83.6259C84.1393 47.51 84.5593 47.6733 84.8859 48C85.2126 48.3267 85.3759 48.7467 85.3759 49.26V56.75C85.3759 57.2633 85.2126 57.6833 84.8859 58.01C84.5593 58.3367 84.1393 58.5 83.6259 58.5H75.7859ZM75.7859 83C75.2726 83 74.8526 82.8367 74.5259 82.51C74.1993 82.1833 74.0359 81.7633 74.0359 81.25V73.76C74.0359 73.2467 74.1993 72.8267 74.5259 72.5C74.8526 72.1733 75.2726 72.01 75.7859 72.01H83.6259C84.1393 72.01 84.5593 72.1733 84.8859 72.5C85.2126 72.8267 85.3759 73.2467 85.3759 73.76V81.25C85.3759 81.7633 85.2126 82.1833 84.8859 82.51C84.5593 82.8367 84.1393 83 83.6259 83H75.7859Z" fill="#EBFF00"/>
<defs>
<filter id="filter0_d_83_243" x="0" y="0" width="127" height="131" filterUnits="userSpaceOnUse" color-interpolation-filters="sRGB">
<feFlood flood-opacity="0" result="BackgroundImageFix"/>
<feColorMatrix in="SourceAlpha" type="matrix" values="0 0 0 0 0 0 0 0 0 0 0 0 0 0 0 0 0 0 127 0" result="hardAlpha"/>
<feOffset dx="1" dy="6"/>
<feGaussianBlur stdDeviation="8.5"/>
<feComposite in2="hardAlpha" operator="out"/>
<feColorMatrix type="matrix" values="0 0 0 0 0 0 0 0 0 0 0 0 0 0 0 0 0 0 0.25 0"/>
<feBlend mode="normal" in2="BackgroundImageFix" result="effect1_dropShadow_83_243"/>
<feBlend mode="normal" in="SourceGraphic" in2="effect1_dropShadow_83_243" result="shape"/>
</filter>
</defs>
</svg>
