<svg width="38" height="38" viewBox="0 0 38 38" fill="none" xmlns="http://www.w3.org/2000/svg">
<path d="M37.3353 19.4406C37.3353 18.1657 37.2119 16.8497 37.0063 15.616H19.1992V22.8951H29.3982C28.9869 25.2392 27.6298 27.2954 25.6147 28.6114L31.7012 33.3408C35.279 30.0097 37.3353 25.1569 37.3353 19.4406Z" fill="white"/>
<path d="M19.1993 37.8645C24.2988 37.8645 28.5758 36.1784 31.7013 33.2997L25.6148 28.6114C23.9287 29.7629 21.7491 30.4209 19.1993 30.4209C14.2643 30.4209 10.1107 27.0898 8.58912 22.6483L2.33813 27.4599C5.54588 33.8343 12.0436 37.8645 19.1993 37.8645Z" fill="white"/>
<path d="M8.58907 22.6071C7.8077 20.263 7.8077 17.7133 8.58907 15.3692L2.33809 10.5164C-0.335027 15.8627 -0.335027 22.1548 2.33809 27.4599L8.58907 22.6071Z" fill="white"/>
<path d="M19.1993 7.59653C21.8725 7.5554 24.5044 8.58353 26.4373 10.4341L31.8247 5.00566C28.4113 1.79792 23.8876 0.0706769 19.1993 0.111802C12.0436 0.111802 5.54588 4.14204 2.33813 10.5164L8.58912 15.3691C10.1107 10.8865 14.2643 7.59653 19.1993 7.59653Z" fill="white"/>
</svg>
