<svg width="37" height="26" viewBox="0 0 47 36" fill="none" xmlns="http://www.w3.org/2000/svg">
<path d="M39.7439 3.11026C36.7493 1.70916 33.5473 0.690893 30.1997 0.111084C29.7886 0.854379 29.3083 1.85413 28.9771 2.64942C25.4185 2.11426 21.8927 2.11426 18.3996 2.64942C18.0685 1.85413 17.5773 0.854379 17.1625 0.111084C13.8112 0.690893 10.6056 1.7129 7.61097 3.11768C1.57081 12.2452 -0.0665798 21.1459 0.752116 29.9203C4.75827 32.912 8.64072 34.7294 12.4576 35.9186C13.4001 34.6216 14.2406 33.2428 14.9647 31.7897C13.5856 31.2657 12.2648 30.619 11.0168 29.8683C11.3479 29.623 11.6717 29.3666 11.9846 29.1027C19.5967 32.663 27.8673 32.663 35.3884 29.1027C35.705 29.3666 36.0288 29.623 36.3563 29.8683C35.1046 30.6227 33.7801 31.2694 32.4011 31.7934C33.1252 33.2428 33.9621 34.6253 34.9081 35.9223C38.7287 34.7331 42.6148 32.9157 46.6209 29.9203C47.5815 19.7486 44.9799 10.9295 39.7439 3.11026ZM16.0017 24.5241C13.7166 24.5241 11.8427 22.3909 11.8427 19.7931C11.8427 17.1954 13.6766 15.0585 16.0017 15.0585C18.3268 15.0585 20.2007 17.1916 20.1607 19.7931C20.1643 22.3909 18.3268 24.5241 16.0017 24.5241ZM31.3714 24.5241C29.0863 24.5241 27.2124 22.3909 27.2124 19.7931C27.2124 17.1954 29.0462 15.0585 31.3714 15.0585C33.6964 15.0585 35.5704 17.1916 35.5304 19.7931C35.5304 22.3909 33.6964 24.5241 31.3714 24.5241Z" fill="white"/>
</svg>
