<svg width="57" height="46" viewBox="0 0 57 46" fill="none" xmlns="http://www.w3.org/2000/svg">
<path d="M28.4911 28.75C33.6042 28.75 37.6734 24.5669 37.6734 19.4062C37.6734 14.2456 33.5285 10.0625 28.4911 10.0625C23.378 10.0625 19.3088 14.2456 19.3088 19.4062C19.2286 24.5633 23.3789 28.75 28.4911 28.75ZM32.9442 31.625H24.0558C17.0644 31.625 11.4 36.9887 11.4 43.6012C11.4 44.9309 12.5311 46 13.9294 46H43.0706C44.4689 46 45.6 44.9309 45.6 43.6012C45.6 36.9887 39.9356 31.625 32.9442 31.625ZM45.6 14.375C49.5348 14.375 52.725 11.1568 52.725 7.1875C52.725 3.2182 49.5366 0 45.6 0C41.6652 0 38.475 3.2182 38.475 7.1875C38.475 11.1568 41.6634 14.375 45.6 14.375ZM16.3786 19.4062C16.3786 18.9167 16.4661 18.4512 16.5219 17.9768C15.5503 17.4387 14.4816 17.25 13.3505 17.25H7.84462C3.51263 17.25 0 21.0055 0 25.6324C0 26.5578 0.702436 27.3125 1.56928 27.3125H19.3372C17.5186 25.1742 16.3786 22.434 16.3786 19.4062ZM11.4 14.375C15.3348 14.375 18.525 11.1568 18.525 7.1875C18.525 3.2182 15.3366 0 11.4 0C7.46522 0 4.275 3.2182 4.275 7.1875C4.275 11.1568 7.46522 14.375 11.4 14.375ZM49.1536 17.25H43.646C42.506 17.25 41.4301 17.5229 40.4522 17.9903C40.5056 18.4629 40.5947 18.9211 40.5947 19.4062C40.5947 22.4349 39.4565 25.1751 37.6414 27.3125H55.4272C56.2964 27.3125 57 26.5578 57 25.6324C57 21.0055 53.4909 17.25 49.1536 17.25Z" fill="#191A1B"/>
</svg>
