<svg width="52" height="60" viewBox="0 0 52 60" fill="none" xmlns="http://www.w3.org/2000/svg">
<g clip-path="url(#clip0_8_40)">
<path d="M18.5714 3.75V7.5H33.4286V3.75C33.4286 1.6793 35.0884 0 37.1429 0C39.1973 0 40.8571 1.6793 40.8571 3.75V7.5H46.4286C49.5045 7.5 52 10.0184 52 13.125V18.75H0V13.125C0 10.0184 2.49437 7.5 5.57143 7.5H11.1429V3.75C11.1429 1.6793 12.8027 0 14.8571 0C16.9116 0 18.5714 1.6793 18.5714 3.75ZM0 22.5H52V54.375C52 57.4805 49.5045 60 46.4286 60H5.57143C2.49437 60 0 57.4805 0 54.375V22.5ZM7.42857 35.625C7.42857 36.6562 8.25964 37.5 9.28571 37.5H13C14.0214 37.5 14.8571 36.6562 14.8571 35.625V31.875C14.8571 30.8438 14.0214 30 13 30H9.28571C8.25964 30 7.42857 30.8438 7.42857 31.875V35.625ZM22.2857 35.625C22.2857 36.6562 23.1214 37.5 24.1429 37.5H27.8571C28.8786 37.5 29.7143 36.6562 29.7143 35.625V31.875C29.7143 30.8438 28.8786 30 27.8571 30H24.1429C23.1214 30 22.2857 30.8438 22.2857 31.875V35.625ZM39 30C37.9786 30 37.1429 30.8438 37.1429 31.875V35.625C37.1429 36.6562 37.9786 37.5 39 37.5H42.7143C43.7357 37.5 44.5714 36.6562 44.5714 35.625V31.875C44.5714 30.8438 43.7357 30 42.7143 30H39ZM7.42857 50.625C7.42857 51.6562 8.25964 52.5 9.28571 52.5H13C14.0214 52.5 14.8571 51.6562 14.8571 50.625V46.875C14.8571 45.8438 14.0214 45 13 45H9.28571C8.25964 45 7.42857 45.8438 7.42857 46.875V50.625ZM24.1429 45C23.1214 45 22.2857 45.8438 22.2857 46.875V50.625C22.2857 51.6562 23.1214 52.5 24.1429 52.5H27.8571C28.8786 52.5 29.7143 51.6562 29.7143 50.625V46.875C29.7143 45.8438 28.8786 45 27.8571 45H24.1429ZM37.1429 50.625C37.1429 51.6562 37.9786 52.5 39 52.5H42.7143C43.7357 52.5 44.5714 51.6562 44.5714 50.625V46.875C44.5714 45.8438 43.7357 45 42.7143 45H39C37.9786 45 37.1429 45.8438 37.1429 46.875V50.625Z" fill="#191A1B"/>
</g>
<defs>
<clipPath id="clip0_8_40">
<rect width="52" height="60" fill="white"/>
</clipPath>
</defs>
</svg>
