<svg width="55" height="55" viewBox="0 0 55 55" fill="none" xmlns="http://www.w3.org/2000/svg">
<path d="M35.6426 24.0729C38.6815 24.0729 41.5379 25.2535 43.6842 27.3998L45.7886 29.5042C50.0865 27.5985 53.4424 23.7786 54.5563 19.1218C55.1713 16.5523 55.13 14.0644 54.5794 11.7742C54.2987 10.6054 52.8145 10.2155 51.9648 11.0648L44.5634 18.4661H36.4423V10.4411L43.8437 3.03971C44.6936 2.18979 44.3029 0.705437 43.1343 0.425066C40.844 -0.125471 38.3561 -0.166828 35.7866 0.44814C29.8462 1.86933 25.2174 6.91709 24.271 12.952C24.1162 13.8464 24.084 14.7165 24.0947 15.5758L32.9871 24.4768C33.8594 24.1803 34.751 24.0729 35.6426 24.0729ZM41.25 29.9274C38.7621 27.4395 35.0657 26.9658 32.0772 28.4342L20.5283 16.9723V10.3111L6.875 -0.000324432L0 6.778L10.3125 20.4313L16.977 20.4321L28.4389 31.8833C26.9704 34.8718 27.4451 38.5682 29.9331 41.0561L42.5015 53.6352C44.072 55.1928 46.6061 55.1928 48.1637 53.635L53.8302 47.9685C55.3878 46.4109 55.3878 43.8779 53.83 42.3063L41.25 29.9274ZM24.4814 32.9782L18.1221 26.6296L2.12695 42.6247C-0.705762 45.4574 -0.705762 50.0454 2.12695 52.8781C3.54062 54.2907 5.39365 54.9997 7.25098 54.9997C9.1083 54.9997 10.9613 54.2915 12.3771 52.8749L25.1711 40.0809C24.2236 37.8444 23.9121 35.3844 24.4814 32.9782ZM6.875 50.7028C5.45166 50.7028 4.29688 49.548 4.29688 48.1247C4.29688 46.7003 5.45166 45.5466 6.875 45.5466C8.29834 45.5466 9.45312 46.696 9.45312 48.1247C9.45312 49.5534 8.29834 50.7028 6.875 50.7028Z" fill="#191A1B"/>
</svg>
