<svg width="127" height="131" viewBox="0 0 127 131" fill="none" xmlns="http://www.w3.org/2000/svg">
<g filter="url(#filter0_d_83_244)">
<path d="M16 29C16 19.0589 24.0589 11 34 11H91C100.941 11 109 19.0589 109 29V90C109 99.9411 100.941 108 91 108H34C24.0589 108 16 99.9411 16 90V29Z" fill="#191A1B"/>
<path d="M17 29C17 19.6112 24.6112 12 34 12H91C100.389 12 108 19.6112 108 29V90C108 99.3888 100.389 107 91 107H34C24.6112 107 17 99.3888 17 90V29Z" stroke="#3D31E3" stroke-width="2"/>
</g>
<path d="M36.1653 84C35.6519 84 35.2319 83.8367 34.9053 83.51C34.5786 83.1833 34.4153 82.7633 34.4153 82.25V78.05C34.4153 77.6767 34.5086 77.1867 34.6953 76.58C34.9286 75.9267 35.4186 75.2967 36.1653 74.69L45.4053 65.52C48.8119 62.9067 51.5653 60.69 53.6653 58.87C55.8119 57.05 57.3986 55.3933 58.4253 53.9C59.4519 52.4067 59.9653 50.96 59.9653 49.56C59.9653 47.74 59.4519 46.2467 58.4253 45.08C57.4453 43.8667 55.8353 43.26 53.5953 43.26C52.1019 43.26 50.8419 43.5867 49.8153 44.24C48.8353 44.8467 48.0653 45.6633 47.5053 46.69C46.9453 47.7167 46.5719 48.8367 46.3853 50.05C46.2453 50.6567 45.9419 51.0767 45.4753 51.31C45.0553 51.5433 44.6119 51.66 44.1453 51.66H36.7253C36.2586 51.66 35.8853 51.52 35.6053 51.24C35.3253 50.9133 35.1853 50.5633 35.1853 50.19C35.2319 48.0433 35.6753 46.0133 36.5153 44.1C37.4019 42.1867 38.6386 40.4833 40.2253 38.99C41.8119 37.4967 43.7253 36.33 45.9653 35.49C48.2053 34.6033 50.7486 34.16 53.5953 34.16C57.5153 34.16 60.8053 34.8133 63.4653 36.12C66.1253 37.38 68.1319 39.13 69.4853 41.37C70.8386 43.61 71.5153 46.2 71.5153 49.14C71.5153 51.38 71.0486 53.4567 70.1153 55.37C69.2286 57.2833 67.9219 59.1267 66.1953 60.9C64.4686 62.6267 62.4153 64.4233 60.0353 66.29L51.7753 74.55H70.8153C71.3286 74.55 71.7486 74.7133 72.0753 75.04C72.4019 75.3667 72.5653 75.7867 72.5653 76.3V82.25C72.5653 82.7633 72.4019 83.1833 72.0753 83.51C71.7486 83.8367 71.3286 84 70.8153 84H36.1653ZM81.7205 59.5C81.2072 59.5 80.7872 59.3367 80.4605 59.01C80.1338 58.6833 79.9705 58.2633 79.9705 57.75V50.26C79.9705 49.7467 80.1338 49.3267 80.4605 49C80.7872 48.6733 81.2072 48.51 81.7205 48.51H89.5605C90.0738 48.51 90.4938 48.6733 90.8205 49C91.1472 49.3267 91.3105 49.7467 91.3105 50.26V57.75C91.3105 58.2633 91.1472 58.6833 90.8205 59.01C90.4938 59.3367 90.0738 59.5 89.5605 59.5H81.7205ZM81.7205 84C81.2072 84 80.7872 83.8367 80.4605 83.51C80.1338 83.1833 79.9705 82.7633 79.9705 82.25V74.76C79.9705 74.2467 80.1338 73.8267 80.4605 73.5C80.7872 73.1733 81.2072 73.01 81.7205 73.01H89.5605C90.0738 73.01 90.4938 73.1733 90.8205 73.5C91.1472 73.8267 91.3105 74.2467 91.3105 74.76V82.25C91.3105 82.7633 91.1472 83.1833 90.8205 83.51C90.4938 83.8367 90.0738 84 89.5605 84H81.7205Z" fill="#898986"/>
<defs>
<filter id="filter0_d_83_244" x="0" y="0" width="127" height="131" filterUnits="userSpaceOnUse" color-interpolation-filters="sRGB">
<feFlood flood-opacity="0" result="BackgroundImageFix"/>
<feColorMatrix in="SourceAlpha" type="matrix" values="0 0 0 0 0 0 0 0 0 0 0 0 0 0 0 0 0 0 127 0" result="hardAlpha"/>
<feOffset dx="1" dy="6"/>
<feGaussianBlur stdDeviation="8.5"/>
<feComposite in2="hardAlpha" operator="out"/>
<feColorMatrix type="matrix" values="0 0 0 0 0 0 0 0 0 0 0 0 0 0 0 0 0 0 0.25 0"/>
<feBlend mode="normal" in2="BackgroundImageFix" result="effect1_dropShadow_83_244"/>
<feBlend mode="normal" in="SourceGraphic" in2="effect1_dropShadow_83_244" result="shape"/>
</filter>
</defs>
</svg>
