<svg width="127" height="131" viewBox="0 0 127 131" fill="none" xmlns="http://www.w3.org/2000/svg">
<g filter="url(#filter0_d_83_246)">
<path d="M16 29C16 19.0589 24.0589 11 34 11H91C100.941 11 109 19.0589 109 29V90C109 99.9411 100.941 108 91 108H34C24.0589 108 16 99.9411 16 90V29Z" fill="#191A1B"/>
<path d="M17 29C17 19.6112 24.6112 12 34 12H91C100.389 12 108 19.6112 108 29V90C108 99.3888 100.389 107 91 107H34C24.6112 107 17 99.3888 17 90V29Z" stroke="#3D31E3" stroke-width="2"/>
</g>
<path d="M53.3235 83.7C49.8701 83.7 46.9068 83.28 44.4335 82.44C41.9601 81.6 39.9301 80.5267 38.3435 79.22C36.7568 77.9133 35.5668 76.49 34.7735 74.95C33.9801 73.3633 33.5601 71.8467 33.5135 70.4C33.5135 69.98 33.6535 69.63 33.9335 69.35C34.2135 69.07 34.5635 68.93 34.9835 68.93H42.6835C43.1968 68.93 43.6168 69.0467 43.9435 69.28C44.2701 69.4667 44.5735 69.8167 44.8535 70.33C45.2268 71.4033 45.8335 72.2667 46.6735 72.92C47.5135 73.5733 48.4935 74.04 49.6135 74.32C50.7801 74.5533 52.0168 74.67 53.3235 74.67C55.9368 74.67 57.9901 74.0633 59.4835 72.85C60.9768 71.6367 61.7235 69.9333 61.7235 67.74C61.7235 65.5 61.0235 63.89 59.6235 62.91C58.2235 61.93 56.2401 61.44 53.6735 61.44H46.1835C45.7168 61.44 45.3201 61.2767 44.9935 60.95C44.6668 60.6233 44.5035 60.2267 44.5035 59.76V56.33C44.5035 55.77 44.5968 55.3033 44.7835 54.93C45.0168 54.5567 45.2501 54.2767 45.4835 54.09L57.5235 43.03H37.7835C37.2701 43.03 36.8501 42.8667 36.5235 42.54C36.1968 42.2133 36.0335 41.8167 36.0335 41.35V35.75C36.0335 35.2367 36.1968 34.8167 36.5235 34.49C36.8501 34.1633 37.2701 34 37.7835 34H68.8635C69.3768 34 69.7968 34.1633 70.1235 34.49C70.4501 34.8167 70.6135 35.2367 70.6135 35.75V40.79C70.6135 41.3033 70.5201 41.7467 70.3335 42.12C70.1468 42.4467 69.9135 42.7033 69.6335 42.89L58.2235 54.16L58.9235 54.23C61.6768 54.51 64.1268 55.1867 66.2735 56.26C68.4201 57.3333 70.1001 58.8733 71.3135 60.88C72.5735 62.84 73.2035 65.3367 73.2035 68.37C73.2035 71.5433 72.3401 74.2733 70.6135 76.56C68.8868 78.8467 66.5301 80.62 63.5435 81.88C60.5568 83.0933 57.1501 83.7 53.3235 83.7ZM82.0623 58.5C81.549 58.5 81.129 58.3367 80.8023 58.01C80.4756 57.6833 80.3123 57.2633 80.3123 56.75V49.26C80.3123 48.7467 80.4756 48.3267 80.8023 48C81.129 47.6733 81.549 47.51 82.0623 47.51H89.9023C90.4156 47.51 90.8356 47.6733 91.1623 48C91.489 48.3267 91.6523 48.7467 91.6523 49.26V56.75C91.6523 57.2633 91.489 57.6833 91.1623 58.01C90.8356 58.3367 90.4156 58.5 89.9023 58.5H82.0623ZM82.0623 83C81.549 83 81.129 82.8367 80.8023 82.51C80.4756 82.1833 80.3123 81.7633 80.3123 81.25V73.76C80.3123 73.2467 80.4756 72.8267 80.8023 72.5C81.129 72.1733 81.549 72.01 82.0623 72.01H89.9023C90.4156 72.01 90.8356 72.1733 91.1623 72.5C91.489 72.8267 91.6523 73.2467 91.6523 73.76V81.25C91.6523 81.7633 91.489 82.1833 91.1623 82.51C90.8356 82.8367 90.4156 83 89.9023 83H82.0623Z" fill="#895508"/>
<defs>
<filter id="filter0_d_83_246" x="0" y="0" width="127" height="131" filterUnits="userSpaceOnUse" color-interpolation-filters="sRGB">
<feFlood flood-opacity="0" result="BackgroundImageFix"/>
<feColorMatrix in="SourceAlpha" type="matrix" values="0 0 0 0 0 0 0 0 0 0 0 0 0 0 0 0 0 0 127 0" result="hardAlpha"/>
<feOffset dx="1" dy="6"/>
<feGaussianBlur stdDeviation="8.5"/>
<feComposite in2="hardAlpha" operator="out"/>
<feColorMatrix type="matrix" values="0 0 0 0 0 0 0 0 0 0 0 0 0 0 0 0 0 0 0.25 0"/>
<feBlend mode="normal" in2="BackgroundImageFix" result="effect1_dropShadow_83_246"/>
<feBlend mode="normal" in="SourceGraphic" in2="effect1_dropShadow_83_246" result="shape"/>
</filter>
</defs>
</svg>
